<svg xmlns="http://www.w3.org/2000/svg" xmlns:xlink="http://www.w3.org/1999/xlink" width="100" zoomAndPan="magnify" viewBox="0 0 75 74.999997" height="100" preserveAspectRatio="xMidYMid meet" version="1.0"><defs><clipPath id="59314c0be2"><path d="M 16.453125 16.453125 L 58.453125 16.453125 L 58.453125 58.453125 L 16.453125 58.453125 Z M 16.453125 16.453125 " clip-rule="nonzero"/></clipPath><clipPath id="e7624fd112"><path d="M 40 40 L 58.453125 40 L 58.453125 58.453125 L 40 58.453125 Z M 40 40 " clip-rule="nonzero"/></clipPath><clipPath id="6a9b7bf4b3"><path d="M 16.453125 16.453125 L 35 16.453125 L 35 35 L 16.453125 35 Z M 16.453125 16.453125 " clip-rule="nonzero"/></clipPath></defs><g clip-path="url(#59314c0be2)"><path fill="#ffffff" d="M 57.605469 21.679688 C 56.792969 20.878906 55.585938 20.707031 54.59375 21.148438 L 50.183594 16.824219 C 49.8125 16.460938 49.222656 16.460938 48.851562 16.824219 L 48.234375 17.421875 C 48.128906 17.527344 48.042969 17.660156 47.996094 17.804688 L 47.527344 19.175781 L 46.128906 19.632812 C 45.84375 19.726562 45.613281 19.945312 45.519531 20.234375 L 45.050781 21.605469 L 43.652344 22.0625 C 43.367188 22.15625 43.148438 22.375 43.042969 22.660156 L 42.574219 24.03125 L 41.175781 24.488281 C 41.03125 24.539062 40.910156 24.613281 40.804688 24.71875 L 40.183594 25.328125 C 40.003906 25.507812 39.898438 25.757812 39.898438 26.003906 C 39.898438 26.25 40.003906 26.507812 40.183594 26.691406 L 44.386719 30.8125 C 43.964844 31.082031 43.488281 31.269531 42.996094 31.347656 L 41.546875 31.546875 C 40.414062 31.699219 39.347656 32.234375 38.539062 33.023438 L 35.898438 35.613281 C 34.851562 34.632812 33.175781 34.640625 32.148438 35.652344 L 29.261719 38.488281 C 27.832031 37.328125 25.726562 37.402344 24.394531 38.726562 C 23.082031 40.042969 23.003906 42.109375 24.117188 43.539062 L 17.300781 50.242188 C 16.785156 50.746094 16.5 51.421875 16.5 52.136719 C 16.5 52.851562 16.785156 53.527344 17.300781 54.03125 L 21.011719 57.679688 C 21.539062 58.195312 22.222656 58.453125 22.910156 58.453125 C 23.59375 58.453125 24.289062 58.195312 24.8125 57.679688 L 39.660156 43.089844 L 39.671875 43.089844 C 40.175781 42.585938 40.460938 41.910156 40.460938 41.195312 C 40.460938 40.519531 40.203125 39.878906 39.726562 39.386719 L 41.109375 38.023438 C 41.632812 37.519531 42.316406 37.175781 43.050781 37.082031 L 44.488281 36.871094 C 45.621094 36.71875 46.691406 36.183594 47.5 35.394531 L 57.605469 25.46875 C 58.117188 24.964844 58.402344 24.289062 58.402344 23.574219 C 58.402344 22.859375 58.117188 22.183594 57.605469 21.679688 Z M 25.746094 40.082031 C 26.328125 39.5 27.222656 39.414062 27.890625 39.832031 L 25.480469 42.195312 C 25.089844 41.527344 25.164062 40.652344 25.746094 40.082031 Z M 38.328125 41.738281 L 37.308594 42.738281 C 37.261719 42.671875 37.234375 42.605469 37.175781 42.539062 L 36.613281 41.984375 C 35.539062 40.898438 33.652344 40.898438 32.574219 41.984375 L 27.652344 46.910156 C 26.539062 48.023438 26.539062 49.832031 27.652344 50.945312 L 28.203125 51.507812 C 28.203125 51.507812 28.28125 51.546875 28.308594 51.574219 L 26.757812 53.097656 C 26.757812 53.097656 26.71875 53.042969 26.699219 53.011719 L 21.984375 48.308594 L 33.480469 37.011719 C 33.632812 36.859375 33.84375 36.785156 34.050781 36.785156 C 34.261719 36.785156 34.460938 36.859375 34.621094 37.011719 L 35.234375 37.621094 L 35.242188 37.621094 L 37.707031 40.050781 L 37.71875 40.050781 L 38.328125 40.660156 C 38.480469 40.804688 38.554688 40.996094 38.554688 41.195312 C 38.554688 41.394531 38.480469 41.585938 38.328125 41.738281 Z M 49.242188 26.148438 L 45.804688 29.527344 L 42.328125 26.117188 L 43.621094 25.699219 C 43.910156 25.605469 44.136719 25.386719 44.234375 25.097656 L 44.699219 23.726562 L 46.097656 23.261719 C 46.386719 23.175781 46.613281 22.945312 46.707031 22.671875 L 47.175781 21.300781 L 48.574219 20.832031 C 48.859375 20.738281 49.082031 20.519531 49.175781 20.234375 L 49.621094 18.9375 L 53.109375 22.355469 Z M 49.242188 26.148438 " fill-opacity="1" fill-rule="nonzero"/></g><path fill="#ffffff" d="M 50.785156 42.261719 C 50.785156 46.984375 46.9375 50.832031 42.214844 50.832031 C 41.691406 50.832031 41.261719 51.261719 41.261719 51.785156 C 41.261719 52.308594 41.691406 52.738281 42.214844 52.738281 C 47.996094 52.738281 52.691406 48.042969 52.691406 42.261719 C 52.691406 41.738281 52.261719 41.308594 51.738281 41.308594 C 51.214844 41.308594 50.785156 41.738281 50.785156 42.261719 Z M 50.785156 42.261719 " fill-opacity="1" fill-rule="nonzero"/><path fill="#ffffff" d="M 22.214844 32.738281 C 22.214844 33.261719 22.640625 33.691406 23.164062 33.691406 C 23.691406 33.691406 24.117188 33.261719 24.117188 32.738281 C 24.117188 28.011719 27.964844 24.164062 32.691406 24.164062 C 33.214844 24.164062 33.640625 23.738281 33.640625 23.214844 C 33.640625 22.691406 33.214844 22.261719 32.691406 22.261719 C 26.910156 22.261719 22.214844 26.957031 22.214844 32.738281 Z M 22.214844 32.738281 " fill-opacity="1" fill-rule="nonzero"/><g clip-path="url(#e7624fd112)"><path fill="#ffffff" d="M 57.453125 40.355469 C 56.929688 40.355469 56.5 40.785156 56.5 41.308594 C 56.5 49.707031 49.660156 56.546875 41.261719 56.546875 C 40.738281 56.546875 40.308594 56.976562 40.308594 57.5 C 40.308594 58.023438 40.738281 58.453125 41.261719 58.453125 C 50.71875 58.453125 58.402344 50.757812 58.402344 41.308594 C 58.402344 40.785156 57.976562 40.355469 57.453125 40.355469 Z M 57.453125 40.355469 " fill-opacity="1" fill-rule="nonzero"/></g><g clip-path="url(#6a9b7bf4b3)"><path fill="#ffffff" d="M 17.453125 34.640625 C 17.976562 34.640625 18.402344 34.214844 18.402344 33.691406 C 18.402344 25.289062 25.242188 18.453125 33.640625 18.453125 C 34.164062 18.453125 34.59375 18.023438 34.59375 17.5 C 34.59375 16.976562 34.164062 16.546875 33.640625 16.546875 C 24.183594 16.546875 16.5 24.242188 16.5 33.691406 C 16.5 34.214844 16.929688 34.640625 17.453125 34.640625 Z M 17.453125 34.640625 " fill-opacity="1" fill-rule="nonzero"/></g></svg>